<mxfile host="65bd71144e">
    <diagram id="C5RBs43oDa-KdzZeNtuy" name="Page-1">
        <mxGraphModel dx="683" dy="614" grid="1" gridSize="10" guides="1" tooltips="1" connect="1" arrows="1" fold="1" page="1" pageScale="1" pageWidth="827" pageHeight="1169" math="0" shadow="0">
            <root>
                <mxCell id="WIyWlLk6GJQsqaUBKTNV-0"/>
                <mxCell id="WIyWlLk6GJQsqaUBKTNV-1" parent="WIyWlLk6GJQsqaUBKTNV-0"/>
                <mxCell id="0" value="Search-menu" style="rounded=0;whiteSpace=wrap;html=1;" vertex="1" parent="WIyWlLk6GJQsqaUBKTNV-1">
                    <mxGeometry x="350" y="200" width="120" height="60" as="geometry"/>
                </mxCell>
                <mxCell id="1" value="Homepage" style="rounded=0;whiteSpace=wrap;html=1;" vertex="1" parent="WIyWlLk6GJQsqaUBKTNV-1">
                    <mxGeometry x="350" y="120" width="120" height="60" as="geometry"/>
                </mxCell>
                <mxCell id="2" value="User (learner????)" style="rounded=0;whiteSpace=wrap;html=1;" vertex="1" parent="WIyWlLk6GJQsqaUBKTNV-1">
                    <mxGeometry x="110" y="200" width="120" height="60" as="geometry"/>
                </mxCell>
                <mxCell id="3" value="Content-viewer???" style="rounded=0;whiteSpace=wrap;html=1;" vertex="1" parent="WIyWlLk6GJQsqaUBKTNV-1">
                    <mxGeometry x="354" y="290" width="120" height="60" as="geometry"/>
                </mxCell>
                <mxCell id="4" value="LoginPage" style="rounded=0;whiteSpace=wrap;html=1;" vertex="1" parent="WIyWlLk6GJQsqaUBKTNV-1">
                    <mxGeometry x="490" y="30" width="120" height="60" as="geometry"/>
                </mxCell>
                <mxCell id="5" value="CreateUserPage" style="rounded=0;whiteSpace=wrap;html=1;" vertex="1" parent="WIyWlLk6GJQsqaUBKTNV-1">
                    <mxGeometry x="640" y="20" width="120" height="60" as="geometry"/>
                </mxCell>
                <mxCell id="6" value="User (Moderator)" style="rounded=0;whiteSpace=wrap;html=1;" vertex="1" parent="WIyWlLk6GJQsqaUBKTNV-1">
                    <mxGeometry x="110" y="290" width="120" height="60" as="geometry"/>
                </mxCell>
                <mxCell id="7" value="Content" style="rounded=0;whiteSpace=wrap;html=1;" vertex="1" parent="WIyWlLk6GJQsqaUBKTNV-1">
                    <mxGeometry x="580" y="350" width="120" height="60" as="geometry"/>
                </mxCell>
                <mxCell id="8" value="Video" style="rounded=0;whiteSpace=wrap;html=1;" vertex="1" parent="WIyWlLk6GJQsqaUBKTNV-1">
                    <mxGeometry x="580" y="440" width="120" height="60" as="geometry"/>
                </mxCell>
                <mxCell id="9" value="Article" style="rounded=0;whiteSpace=wrap;html=1;" vertex="1" parent="WIyWlLk6GJQsqaUBKTNV-1">
                    <mxGeometry x="580" y="540" width="120" height="60" as="geometry"/>
                </mxCell>
                <mxCell id="10" value="Categories" style="rounded=0;whiteSpace=wrap;html=1;" vertex="1" parent="WIyWlLk6GJQsqaUBKTNV-1">
                    <mxGeometry x="340" y="440" width="120" height="60" as="geometry"/>
                </mxCell>
                <mxCell id="11" value="Programming language - category" style="rounded=0;whiteSpace=wrap;html=1;" vertex="1" parent="WIyWlLk6GJQsqaUBKTNV-1">
                    <mxGeometry x="340" y="525" width="120" height="60" as="geometry"/>
                </mxCell>
                <mxCell id="13" value="Difficulty - category" style="rounded=0;whiteSpace=wrap;html=1;" vertex="1" parent="WIyWlLk6GJQsqaUBKTNV-1">
                    <mxGeometry x="340" y="620" width="120" height="60" as="geometry"/>
                </mxCell>
                <mxCell id="14" value="Search-control" style="rounded=0;whiteSpace=wrap;html=1;" vertex="1" parent="WIyWlLk6GJQsqaUBKTNV-1">
                    <mxGeometry x="510" y="200" width="120" height="60" as="geometry"/>
                </mxCell>
            </root>
        </mxGraphModel>
    </diagram>
</mxfile>